<svg width="120" height="96" viewBox="0 0 120 96" fill="none" xmlns="http://www.w3.org/2000/svg">
<path fill-rule="evenodd" clip-rule="evenodd" d="M0 6C0 2.68629 2.68629 0 6 0H48C49.5913 0 51.1174 0.632141 52.2426 1.75736L62.4853 12H114C117.314 12 120 14.6863 120 18V78C120 87.9411 111.941 96 102 96H18C8.05888 96 0 87.9411 0 78V6ZM12 12V78C12 81.3137 14.6863 84 18 84H102C105.314 84 108 81.3137 108 78V24H60C58.4087 24 56.8826 23.3679 55.7574 22.2426L45.5147 12H12Z" fill="white"/>
<path fill-rule="evenodd" clip-rule="evenodd" d="M60 36C63.3137 36 66 38.6863 66 42V66C66 69.3137 63.3137 72 60 72C56.6863 72 54 69.3137 54 66V42C54 38.6863 56.6863 36 60 36Z" fill="white"/>
<path fill-rule="evenodd" clip-rule="evenodd" d="M42 54C42 50.6863 44.6863 48 48 48H72C75.3137 48 78 50.6863 78 54C78 57.3137 75.3137 60 72 60H48C44.6863 60 42 57.3137 42 54Z" fill="white"/>
</svg>
